<?xml version="1.0" encoding="utf-8"?>
<!-- Generator: Adobe Illustrator 21.0.2, SVG Export Plug-In . SVG Version: 6.00 Build 0)  -->
<svg version="1.1" id="Layer_1" xmlns="http://www.w3.org/2000/svg" xmlns:xlink="http://www.w3.org/1999/xlink" x="0px" y="0px"
	 viewBox="0 0 491.5 491.5" style="enable-background:new 0 0 491.5 491.5;" xml:space="preserve">
<style type="text/css">
	.st0{fill:#FFFFFF;}
</style>
<g>
	<path class="st0" d="M35.7,164.3c7.9,0,13.8-3.1,17.6-9.1c3.8-6.1,5.7-14.3,5.8-24.7c-2.1,2.7-5.2,5.3-9.2,7.6
		c-4,2.4-8.5,3.6-13.3,3.6c-8,0-14.8-3-20.2-9.1c-5.4-6-8.1-14.1-8.1-24.1s2.9-18.1,8.8-24.2c5.9-6.1,13.2-9.1,22.1-9.1
		c14.4,0,24.3,7.3,29.7,21.8c3.1,8.3,4.6,17.7,4.6,28.2c0,10.5-1,19.2-2.9,26.1c-2,7-4.7,12.5-8.1,16.5
		c-6.7,7.9-14.9,11.9-24.6,11.9c-9.7,0-18.5-3.4-26.3-10.3l7.6-12.6c2,1.9,4.6,3.7,7.9,5.2C30.2,163.5,33.2,164.3,35.7,164.3z
		 M38.5,126.5c5.2,0,9.5-1.6,12.9-4.9c3.5-3.2,5.2-7.4,5.2-12.6c0-5.2-1.7-9.6-5-13.4c-3.3-3.7-7.5-5.6-12.5-5.6s-9.1,1.7-12.4,5
		c-3.2,3.3-4.9,7.6-4.9,12.8c0,5.2,1.5,9.6,4.4,13.2C29.2,124.8,33.3,126.5,38.5,126.5z"/>
	<path class="st0" d="M143.3,76.9v15.5h-37.8v25c3.8-2.3,8-3.5,12.8-3.5c8.4,0,15.6,2.9,21.7,8.6c6.1,5.7,9.1,13.4,9.1,23.2
		s-3.2,17.9-9.5,24.3c-6.3,6.4-14.1,9.7-23.3,9.7c-12.1,0-21.7-4.5-28.8-13.7l8.1-12.5c0.7,0.8,1.6,1.7,2.8,2.8
		c1.1,1.1,3.5,2.5,7.1,4.3c3.6,1.8,7.5,2.7,11.8,2.7s8.2-1.5,11.7-4.4c3.5-2.9,5.3-7.1,5.3-12.7c0-5.6-1.9-9.9-5.6-12.9
		c-3.7-3.1-8.4-4.6-14.1-4.6c-5.7,0-11.1,1.6-16.2,4.8l-6.4-7.8V76.9H143.3z"/>
	<path class="st0" d="M171.9,165.4c-6.1-9.5-9.1-22.3-9.1-38.3s3-28.7,9.1-38.3c6.1-9.5,15.2-14.3,27.4-14.3
		c12.2,0,21.4,4.8,27.4,14.3c6.1,9.5,9.1,22.3,9.1,38.3s-3,28.7-9.1,38.3c-6.1,9.5-15.2,14.3-27.4,14.3
		C187.1,179.7,177.9,174.9,171.9,165.4z M182.7,99.7c-3.5,7-5.3,16.1-5.3,27.4s1.8,20.5,5.3,27.4s9.1,10.4,16.6,10.4
		s13-3.5,16.5-10.4c3.5-6.9,5.2-16.1,5.2-27.5c0-11.4-1.7-20.6-5.2-27.5c-3.5-6.9-9-10.4-16.5-10.4S186.3,92.7,182.7,99.7z"/>
	<path class="st0" d="M288.8,90.5c-8,0-13.8,3-17.6,9.1c-3.8,6.1-5.7,14.3-5.8,24.7c2.1-2.7,5.2-5.2,9.2-7.6c4-2.4,8.5-3.6,13.3-3.6
		c8,0,14.8,3,20.2,9.1c5.4,6,8.1,14.1,8.1,24.1c0,10-2.9,18.1-8.8,24.2c-5.9,6.1-13.2,9.1-22.1,9.1c-14.4,0-24.3-7.3-29.7-21.8
		c-3.1-8.3-4.6-17.7-4.6-28.2c0-10.4,1-19.2,3-26.1c2-7,4.7-12.5,8.1-16.6c6.7-7.9,14.8-11.9,24.5-11.9c9.7,0,18.5,3.4,26.3,10.3
		l-7.6,12.6c-2-1.9-4.6-3.7-7.9-5.2C294.3,91.3,291.4,90.5,288.8,90.5z M286,128.3c-5.2,0-9.5,1.6-12.9,4.9
		c-3.5,3.2-5.2,7.5-5.2,12.6c0,5.2,1.7,9.6,5,13.4c3.3,3.7,7.5,5.6,12.6,5.6c5,0,9.2-1.7,12.6-5c3.3-3.3,5-7.6,5-12.8
		c0-5.2-1.5-9.6-4.6-13.2C295.3,130.1,291.2,128.3,286,128.3z"/>
	<path class="st0" d="M63.9,211.5v15.5H26.1v25c3.8-2.3,8-3.5,12.8-3.5c8.4,0,15.6,2.9,21.7,8.6c6.1,5.7,9.1,13.5,9.1,23.2
		s-3.2,17.9-9.5,24.3c-6.3,6.4-14.1,9.7-23.3,9.7c-12.1,0-21.7-4.5-28.8-13.6l8.1-12.5c0.7,0.8,1.6,1.7,2.8,2.8
		c1.1,1.1,3.5,2.5,7.1,4.3c3.6,1.8,7.5,2.7,11.8,2.7s8.2-1.5,11.7-4.4s5.3-7.1,5.3-12.7s-1.9-9.9-5.6-12.9c-3.7-3-8.4-4.6-14.1-4.6
		s-11.1,1.6-16.2,4.8l-6.4-7.8v-48.8L63.9,211.5L63.9,211.5z"/>
	<path class="st0" d="M145.6,211.5v15.5h-37.8v25c3.8-2.3,8-3.5,12.8-3.5c8.4,0,15.6,2.9,21.7,8.6c6.1,5.7,9.1,13.5,9.1,23.2
		s-3.2,17.9-9.5,24.3c-6.3,6.4-14.1,9.7-23.3,9.7c-12.1,0-21.7-4.5-28.8-13.6l8.1-12.5c0.7,0.8,1.6,1.7,2.8,2.8
		c1.1,1.1,3.5,2.5,7.1,4.3c3.6,1.8,7.5,2.7,11.8,2.7s8.2-1.5,11.7-4.4s5.3-7.1,5.3-12.7s-1.9-9.9-5.6-12.9c-3.7-3-8.4-4.6-14.1-4.6
		s-11.1,1.6-16.2,4.8l-6.4-7.8v-48.8L145.6,211.5L145.6,211.5z"/>
	<path class="st0" d="M212.1,251.3c2.6-4,3.8-8,3.8-12.1s-1.4-7.5-4.1-10.4c-2.7-2.9-6.2-4.3-10.4-4.3c-7.4,0-13.5,4.3-18.3,12.8
		l-12.2-8c3.9-6.7,8.3-11.7,13-15.1c4.7-3.4,10.9-5.1,18.3-5.1s14,2.7,19.7,8.1c5.6,5.4,8.5,12.7,8.5,22c0,5.2-1.2,10.2-3.6,15
		c-2.4,4.7-6.8,10.8-13.2,18.3l-21,24.2h40.6v16.4H172v-14.5l27.2-30.9C205.2,260.8,209.6,255.3,212.1,251.3z"/>
	<path class="st0" d="M288.8,225.2c-8,0-13.8,3.1-17.6,9.2c-3.8,6.1-5.7,14.3-5.8,24.7c2.1-2.7,5.2-5.3,9.2-7.6
		c4-2.4,8.5-3.6,13.3-3.6c8,0,14.8,3,20.2,9.1c5.4,6,8.1,14.1,8.1,24.1s-2.9,18.1-8.8,24.2c-5.9,6.1-13.2,9.1-22.1,9.1
		c-14.4,0-24.3-7.3-29.7-21.8c-3.1-8.3-4.6-17.7-4.6-28.2c0-10.5,1-19.2,3-26.1c2-7,4.7-12.5,8.1-16.5c6.7-7.9,14.8-11.9,24.5-11.9
		c9.7,0,18.5,3.4,26.3,10.3l-7.6,12.6c-2-1.9-4.6-3.7-7.9-5.2C294.3,226,291.4,225.2,288.8,225.2z M286,262.9
		c-5.2,0-9.5,1.6-12.9,4.9c-3.5,3.2-5.2,7.5-5.2,12.6s1.7,9.6,5,13.4c3.3,3.7,7.5,5.6,12.6,5.6c5,0,9.2-1.7,12.6-5
		c3.3-3.3,5-7.6,5-12.8c0-5.2-1.5-9.6-4.6-13.2C295.3,264.7,291.2,262.9,286,262.9z"/>
	<path class="st0" d="M11.5,390.6v-15.2h52.4v13.3l-21.7,27.4c8.2,0.3,14.6,3.2,19.2,8.8c4.6,5.6,6.9,12.2,6.9,20
		c0,10.3-3.1,18.5-9.3,24.4c-6.2,5.9-14.2,8.9-23.9,8.9c-9.7,0-19.3-3.5-28.6-10.6l6.4-13.8c7.3,5.8,15,8.7,23.1,8.7
		c5.2,0,9.5-1.4,12.9-4.1c3.4-2.8,5.1-6.7,5.1-11.9s-1.9-9.3-5.6-12.4c-3.8-3.1-9-4.6-15.6-4.6c-3.3,0-6.5,0.5-9.6,1.6v-13.1
		l20.8-27.3H11.5z"/>
	<path class="st0" d="M109.8,462.6c7.9,0,13.8-3,17.6-9.1c3.8-6.1,5.7-14.3,5.8-24.7c-2.1,2.7-5.2,5.2-9.2,7.6s-8.5,3.6-13.3,3.6
		c-8,0-14.8-3-20.2-9.1c-5.4-6-8.1-14.1-8.1-24.1s2.9-18.1,8.8-24.2c5.9-6.1,13.2-9.1,22.1-9.1c14.4,0,24.3,7.3,29.7,21.8
		c3.1,8.3,4.6,17.7,4.6,28.2c0,10.5-1,19.2-2.9,26.1c-2,7-4.7,12.5-8.1,16.6c-6.7,7.9-14.9,11.9-24.6,11.9
		c-9.7,0-18.5-3.4-26.3-10.3l7.6-12.6c2,1.9,4.6,3.7,7.9,5.2C104.3,461.8,107.3,462.6,109.8,462.6z M112.6,424.9
		c5.2,0,9.5-1.6,12.9-4.9c3.5-3.2,5.2-7.4,5.2-12.6c0-5.2-1.7-9.6-5-13.3c-3.3-3.7-7.5-5.6-12.5-5.6c-5,0-9.1,1.7-12.4,5
		c-3.2,3.3-4.9,7.6-4.9,12.8c0,5.2,1.5,9.6,4.4,13.2C103.3,423.1,107.4,424.9,112.6,424.9z"/>
	<path class="st0" d="M174.3,381c5.7-5.1,12.9-7.7,21.5-7.7c8.6,0,15.8,2.6,21.5,7.7s8.6,11.6,8.6,19.4c0,7.8-3.2,14.7-9.6,20.7
		c8.6,6.2,12.9,14.9,12.9,26.1c0,8.7-3.1,16-9.2,21.9c-6.2,5.9-14.2,8.8-24.2,8.8c-10,0-18.1-2.9-24.2-8.8
		c-6.2-5.9-9.2-13.2-9.2-21.9c0-11.2,4.3-19.9,13-26.1c-6.4-6-9.6-12.9-9.6-20.7C165.7,392.6,168.6,386.1,174.3,381z M183.3,458.9
		c3.9,2.9,8.1,4.3,12.6,4.3c4.4,0,8.6-1.4,12.6-4.3c3.9-2.8,5.9-6.9,5.9-12.3c0-5.3-1.9-9.4-5.6-12.3c-3.8-2.9-8-4.4-12.8-4.4
		c-4.8,0-9.1,1.5-12.8,4.4c-3.8,2.9-5.6,7-5.6,12.3C177.4,452,179.3,456,183.3,458.9z M184.5,412.7c3.2,3,7,4.4,11.4,4.4
		c4.4,0,8.1-1.5,11.3-4.4s4.8-6.6,4.8-10.9c0-4.3-1.6-7.9-4.8-10.8s-7-4.4-11.3-4.4c-4.4,0-8.1,1.5-11.4,4.4s-4.8,6.5-4.8,10.8
		C179.7,406.2,181.3,409.8,184.5,412.7z"/>
	<path class="st0" d="M253.3,463.7c-6.1-9.5-9.1-22.3-9.1-38.3s3-28.7,9.1-38.3c6.1-9.5,15.2-14.3,27.4-14.3
		c12.2,0,21.4,4.8,27.4,14.3c6.1,9.5,9.1,22.3,9.1,38.3s-3,28.7-9.1,38.3c-6.1,9.5-15.2,14.3-27.4,14.3
		C268.5,478,259.3,473.2,253.3,463.7z M264.1,398c-3.5,7-5.3,16.1-5.3,27.4c0,11.3,1.8,20.5,5.3,27.4c3.5,7,9.1,10.5,16.6,10.5
		s13-3.5,16.5-10.4c3.5-6.9,5.2-16.1,5.2-27.5c0-11.4-1.7-20.6-5.2-27.5c-3.5-6.9-9-10.4-16.5-10.4S267.7,391,264.1,398z"/>
</g>
<rect x="333.1" y="234.6" class="st0" width="46.3" height="21.1"/>
<rect y="338.3" class="st0" width="328.2" height="10.6"/>
<polygon class="st0" points="451.6,59.3 447,58 448.2,53.6 443.3,52.2 413,158.2 417.9,159.6 440.3,81.3 444.9,82.6 "/>
<g>
	<path class="st0" d="M437.6,103.3L390,276.5l30.5,8.7l49.4-172.7C463.2,111.5,444.6,106.2,437.6,103.3z"/>
	<path class="st0" d="M365.8,401.4L365.8,401.4c-0.9,3.1-1.3,6.4-1.2,9.6l0.1,3.7c0,1,0.7,1.9,1.7,2.1c1,0.3,2-0.1,2.5-0.9l2-3.1
		c1.8-2.7,3.2-5.7,4.1-8.8L365.8,401.4z"/>
</g>
<path class="st0" d="M420.5,285.2l-30.5-8.7L370.1,346c-0.8,2.6-1.4,5.3-1.9,8c-2.7,15.4-3.8,31.1-3.2,47c0,0.4,0.3,0.8,0.7,0.9
	l9.1,2.6c0.4,0.1,0.8,0,1-0.4c9.2-12.9,16.6-26.9,22.4-42c0.9-2.3,1.6-4.6,2.3-6.9L420.5,285.2z"/>
<g>
	<path class="st0" d="M393.1,265.2l-0.7,2.6c11.2,4,18.5,6,30.6,8.6l0.7-2.6C411.5,271.2,404.3,269.2,393.1,265.2z"/>
	<path class="st0" d="M395.6,255.9l-0.7,2.6c11.2,4,18.5,6,30.7,8.7l0.7-2.6C414.1,261.9,406.9,259.9,395.6,255.9z"/>
	<path class="st0" d="M398.2,246.6l-0.7,2.6c11.3,4,18.6,6,30.8,8.7l0.7-2.6C416.8,252.6,409.5,250.6,398.2,246.6z"/>
	<path class="st0" d="M400.8,237.3l-0.7,2.6c11.4,4,18.6,6.1,30.9,8.7l0.7-2.6C419.4,243.4,412.2,241.3,400.8,237.3z"/>
	<path class="st0" d="M403.3,228l-0.7,2.6c11.4,4.1,18.7,6.1,31,8.8l0.7-2.6C422,234.1,414.8,232.1,403.3,228z"/>
	<path class="st0" d="M436.3,230.1l0.7-2.6c-12.4-2.7-19.6-4.7-31.1-8.8l-0.7,2.6C416.6,225.4,423.9,227.4,436.3,230.1z"/>
	<path class="st0" d="M390.5,274.5C390.5,274.5,390.5,274.5,390.5,274.5l-0.8,2.6c11.2,4,18.4,6,30.6,8.6l0.7-2.6
		C408.9,280.4,401.7,278.4,390.5,274.5z"/>
</g>
<g>
	<path class="st0" d="M469.9,112.5l21.6-75.4l-37.4,7.3l-1,3.2l-15.4,55.8C444.6,106.2,463.2,111.5,469.9,112.5z"/>
	<path class="st0" d="M491.4,36.4c-1.1-2.7-10.3-2.9-20.6-0.6s-17.7,6.4-16.6,9.1s10.3,2.9,20.6,0.6S492.5,39.1,491.4,36.4z"/>
</g>
<path class="st0" d="M484.4,38c-0.7-1.7-6.4-1.8-12.9-0.4c-6.4,1.5-11.1,4-10.4,5.7c0.7,1.7,6.4,1.8,12.9,0.4
	C480.4,42.2,485.1,39.7,484.4,38z"/>
<path class="st0" d="M469.5,15.2l-7.6,26.5l-0.5,1.8c1,1.5,6.5,1.6,12.6,0.2c3.9-0.9,7.2-2.2,8.9-3.4l0.8-2.7l4.8-16.9
	C489.9,16,470.8,10.5,469.5,15.2z"/>
</svg>
